<?xml version="1.0" encoding="UTF-8"?>
<svg id="Layer_1" xmlns="http://www.w3.org/2000/svg" version="1.1" viewBox="0 0 612 792">
  <!-- Generator: Adobe Illustrator 29.8.2, SVG Export Plug-In . SVG Version: 2.1.1 Build 3)  -->
  <defs>
    <style>
      .st0 {
        fill: #0d0d0d;
      }

      .st1 {
        display: none;
        fill: #fffffe;
      }

      .st2 {
        fill: #f15f23;
      }
    </style>
  </defs>
  <path class="st1" d="M655.65,587.35v253.06h-398.06v-253.06h398.06ZM246.14,325.5v-27.2c0-.34-.9-2.71-1.13-3.17-3.96-7.91-16.35-8.03-20.68-.41-2.37,4.17-1.37,11.4-1.47,16.25-.56,28.9-.44,58.04.11,86.92,2.79,10.41,18.14,10.91,22.28,1.26,20.07,13.55,46.91,6.1,58.37-14.76,17.19-31.29-7.81-70.38-44.13-63.61-4.8.9-8.93,2.83-13.36,4.73ZM329.33,289.13c-15.23,2.06-13.35,26.51,2.97,25.49,17.38-1.09,15.72-28.02-2.97-25.49ZM370.34,289.13c-5.3.64-9.36,5.17-9.81,10.44v96.17c1.05,13.45,21.27,13.78,23.27.75v-97.43c-.83-6.97-6.64-10.74-13.47-9.92ZM184.14,320.19v-20.62c0-.42-.52-2.31-.71-2.83-3.81-10.68-20.39-9.08-22.04,2.1l-.28,21.36h-6.96c-7.86,0-11.87,11.29-7.32,17.44,1.07,1.44,4.53,4.07,6.31,4.07h7.97c.13,12.01-.29,24.06.26,36.06.87,22.07,24.45,34.61,43.95,25.48,11.49-5.38,6.43-22.37-6.3-19.96-4.12.78-7.41,2.31-11.31-.72-1.52-1.18-3.56-4.68-3.56-6.56v-34.29h16.58c4.56,0,8.53-6.58,8.5-10.75-.04-4.54-4.1-10.76-9.01-10.76h-16.07ZM437.4,306.35c-21.86,1.23-38.77,21.18-37.66,42.83,1.08,21.2,18.56,42.81,35.36,54.48,1.2.83,3.09,2.39,4.51,2.35,1.67-.05,5.85-3.43,7.33-4.58,17.29-13.45,34.9-35.75,32.24-59.05-2.36-20.63-20.77-37.2-41.77-36.02ZM330.1,321.78c-8.18.87-10.05,6.84-10.34,13.96-.82,20.34.37,41.11.33,61.44,2.46,12.46,21.89,11.65,23.18-1.23l.04-63.75c-.63-6.99-6.34-11.15-13.22-10.42Z"/>
  <g>
    <path class="st0" d="M253.59,373.9c4.43-1.9,8.56-3.84,13.36-4.73,36.32-6.77,61.32,32.32,44.13,63.61-11.46,20.86-38.3,28.31-58.37,14.76-4.13,9.65-19.49,9.15-22.28-1.26-.55-28.88-.67-58.02-.11-86.92.09-4.85-.91-12.07,1.47-16.25,4.33-7.62,16.71-7.5,20.68.41.23.46,1.13,2.84,1.13,3.17v27.2ZM270.5,389.41c-15.46,1.45-23.99,18.98-17,32.54,7.1,13.77,26.02,16.11,36.28,4.45,13.61-15.47,1.25-38.92-19.28-36.99Z"/>
    <path class="st2" d="M444.85,354.74c21.01-1.18,39.42,15.39,41.77,36.02,2.66,23.3-14.95,45.6-32.24,59.05-1.48,1.15-5.66,4.53-7.33,4.58-1.42.05-3.31-1.51-4.51-2.35-16.8-11.67-34.27-33.28-35.36-54.48s15.8-41.6,37.66-42.83ZM445.36,374.48c-15.94,1.33-24.23,20.42-13.86,32.94,10.47,12.64,30.89,7.94,34.99-7.77,3.44-13.21-7.53-26.31-21.13-25.17Z"/>
    <path class="st0" d="M191.59,368.58h16.07c4.9,0,8.97,6.21,9.01,10.76.04,4.18-3.94,10.75-8.5,10.75h-16.58v34.29c0,1.88,2.05,5.38,3.56,6.56,3.9,3.03,7.18,1.5,11.31.72,12.73-2.4,17.79,14.58,6.3,19.96-19.5,9.13-43.08-3.4-43.95-25.48-.55-11.99-.12-24.04-.26-36.06h-7.97c-1.78,0-5.24-2.62-6.31-4.07-4.55-6.15-.54-17.44,7.32-17.44h6.96l.28-21.36c1.64-11.18,18.23-12.78,22.04-2.1.19.52.71,2.41.71,2.83v20.62Z"/>
    <path class="st0" d="M377.79,337.53c6.82-.82,12.63,2.95,13.48,9.92v97.43c-2.01,13.03-22.23,12.7-23.3-.75v-96.17c.46-5.26,4.52-9.8,9.82-10.44Z"/>
    <path class="st0" d="M337.55,370.18c6.88-.73,12.59,3.43,13.22,10.42l-.04,63.75c-1.29,12.88-20.72,13.68-23.18,1.23.04-20.32-1.16-41.1-.33-61.44.29-7.12,2.16-13.09,10.34-13.96Z"/>
    <path class="st0" d="M336.79,337.52c18.69-2.53,20.35,24.4,2.97,25.49-16.32,1.02-18.19-23.43-2.97-25.49Z"/>
  </g>
</svg>